<svg width="40" height="41" viewBox="0 0 40 41" fill="none" xmlns="http://www.w3.org/2000/svg">
<path fill-rule="evenodd" clip-rule="evenodd" d="M9.73626 18.4269L20.0038 28.6149L30.2287 18.4685L22.6693 18.4269V0H17.3373V18.4269H9.73626ZM2.73044 11.5857V11.4762C1.21256 11.5392 0.00484467 12.6761 0 14.0709V32.2506C0 33.6842 1.27847 34.8473 2.85645 34.8473H14.2842V37.445H8.57517V40.0416H31.4297V37.445H25.7158V34.8473H37.1436C38.7225 34.8473 40 33.6851 40 32.2506V14.0709C40 12.6761 38.6614 11.5382 37.1436 11.4762H26.5445V14.2735H37.1436V32.2506H2.8642L2.74983 14.2735H13.3469V11.4762H2.74789L2.73044 11.5857Z" fill="#FFD361"/>
</svg>
