<svg width="30" height="30" viewBox="0 0 30 30" fill="none" xmlns="http://www.w3.org/2000/svg">
<path fill-rule="evenodd" clip-rule="evenodd" d="M2.04783 8.59818V8.68024L2.06092 8.59818H10.0102V10.694H2.06237L2.14815 24.1628H27.8577V10.694H19.9084V8.59818H27.8577C28.9961 8.64466 30 9.49722 30 10.5422V24.1628C30 25.2376 29.0419 26.1083 27.8577 26.1083H19.2869V28.0545H23.5723V30H6.43138V28.0545H10.7131V26.1083H2.14234C0.958854 26.1083 0 25.2369 0 24.1628V10.5422C0.00363478 9.49722 0.90942 8.64539 2.04783 8.59818Z" fill="url(#paint0_linear_4541_933)"/>
<path fill-rule="evenodd" clip-rule="evenodd" d="M15.0022 21.4389L7.30161 13.8058H13.0024V0H17.0014V13.8058L22.6709 13.837L15.0022 21.4389Z" fill="url(#paint1_linear_4541_933)"/>
<defs>
<linearGradient id="paint0_linear_4541_933" x1="84" y1="-43.5" x2="65.1801" y2="-58.1587" gradientUnits="userSpaceOnUse">
<stop stop-color="#FFD361"/>
<stop offset="1" stop-color="#FFF8E4"/>
</linearGradient>
<linearGradient id="paint1_linear_4541_933" x1="84" y1="-43.5" x2="65.1801" y2="-58.1587" gradientUnits="userSpaceOnUse">
<stop stop-color="#FFD361"/>
<stop offset="1" stop-color="#FFF8E4"/>
</linearGradient>
</defs>
</svg>
