<svg width="40" height="40" viewBox="0 0 40 40" fill="none" xmlns="http://www.w3.org/2000/svg">
<path d="M5.53371 8.25057L0.571411 0L17.6445 2.06268V0H19.9994L20 6.18797L17.6447 6.18785L5.53371 8.25057Z" fill="#E6E6E6"/>
<path d="M20 37.9374L15.5592 35.9863L17.645 27.3295V21.6574V15.9852V13.1491V10.313H20V37.9374Z" fill="#E6E6E6"/>
<path d="M34.4663 8.25057L39.4286 0L22.3555 2.06268V0H19.9994L20 6.18797L22.3553 6.18785L34.4663 8.25057Z" fill="#E6E6E6"/>
<path d="M24.4408 40L22.355 28.8765V20.6261H24.71L26.6612 21.5051L29.9918 15.4846L25.8874 16.5008H22.355L22.355 13.4069L22.355 10.313H20V37.9374L24.4408 40Z" fill="#E6E6E6"/>
</svg>
