<svg width="22" height="17" viewBox="0 0 22 17" fill="none" xmlns="http://www.w3.org/2000/svg">
<rect width="22" height="17" rx="2" fill="url(#paint0_linear_4562_924)"/>
<path d="M21 2.61151V15.2147C20.9963 15.2538 20.9963 15.2932 21 15.3323C20.9695 15.497 20.89 15.6481 20.7726 15.7651C20.6551 15.8821 20.5052 15.9593 20.3433 15.9862C20.3061 15.9832 20.2687 15.9832 20.2316 15.9862L17.25 16V7.25L11.0068 11.8797L4.75 7.25V16H1.78199C1.74481 15.9971 1.70746 15.9971 1.67028 16C1.50498 15.9753 1.35141 15.8983 1.23118 15.7797C1.11095 15.6612 1.0301 15.5072 1 15.3392C1.00371 15.3001 1.00371 15.2607 1 15.2216V2.61151C1.00185 2.50491 1.0109 2.39856 1.02708 2.29323C1.08513 1.9379 1.26515 1.61533 1.53487 1.38337C1.75634 1.20024 2.02161 1.08082 2.30332 1.03741C2.34613 1.03401 2.38914 1.03401 2.43196 1.03741H2.58768C2.67899 1.03148 2.77057 1.03148 2.86188 1.03741C3.08508 1.09655 3.29376 1.20259 3.47461 1.34877C3.85714 1.64284 4.23629 1.94036 4.62559 2.23442L4.83548 2.39356C6.74814 3.85695 10.5904 6.82525 10.5904 6.82525L10.9865 7.12969L11.3825 6.82525C11.3825 6.82525 15.2519 3.85003 17.1645 2.38664L17.3744 2.2275L18.5254 1.34877C18.7048 1.20427 18.9109 1.09836 19.1313 1.03741C19.2254 1.02027 19.3203 1.00871 19.4157 1.00282H19.5613C19.6063 0.999061 19.6516 0.999061 19.6967 1.00282C19.9763 1.04626 20.2394 1.16575 20.4584 1.34877C20.7418 1.58471 20.926 1.92273 20.9729 2.29323C20.9891 2.39856 20.9981 2.50491 21 2.61151Z" fill="black"/>
<defs>
<linearGradient id="paint0_linear_4562_924" x1="4.57372e-07" y1="17.5" x2="22" y2="0.500037" gradientUnits="userSpaceOnUse">
<stop stop-color="#FFD361"/>
<stop offset="1" stop-color="white"/>
</linearGradient>
</defs>
</svg>
